<svg width="8" height="8" viewBox="0 0 8 8" fill="none" xmlns="http://www.w3.org/2000/svg">
<path fill-rule="evenodd" clip-rule="evenodd" d="M1.57579 0.270362C1.2153 -0.0901208 0.630846 -0.0901208 0.270362 0.270362C-0.0901208 0.630846 -0.0901208 1.2153 0.270362 1.57579L2.69458 4L0.270362 6.42421C-0.0901208 6.7847 -0.0901208 7.36916 0.270362 7.72964C0.630846 8.09012 1.2153 8.09012 1.57579 7.72964L4 5.30543L6.42418 7.7296C6.78466 8.09009 7.36912 8.09009 7.7296 7.7296C8.09009 7.36912 8.09009 6.78466 7.7296 6.42418L5.30543 4L7.72964 1.57579C8.09012 1.2153 8.09012 0.630846 7.72964 0.270362C7.36916 -0.0901208 6.7847 -0.0901208 6.42421 0.270362L4 2.69458L1.57579 0.270362Z" fill="#B8C0C5"/>
</svg>
